<mxfile host="app.diagrams.net" modified="2022-03-14T06:56:04.076Z" agent="5.0 (Windows NT 10.0; Win64; x64) AppleWebKit/537.36 (KHTML, like Gecko) Chrome/99.0.4844.51 Safari/537.36" etag="KLBBaWH6l6JCtGJUouhA" version="17.1.2" type="github">
  <diagram id="C5RBs43oDa-KdzZeNtuy" name="Page-1">
    <mxGraphModel dx="1422" dy="705" grid="1" gridSize="10" guides="1" tooltips="1" connect="1" arrows="1" fold="1" page="1" pageScale="1" pageWidth="827" pageHeight="1169" math="0" shadow="0">
      <root>
        <mxCell id="WIyWlLk6GJQsqaUBKTNV-0" />
        <mxCell id="WIyWlLk6GJQsqaUBKTNV-1" parent="WIyWlLk6GJQsqaUBKTNV-0" />
        <mxCell id="WSsvyyRBzGBjTciZfQci-0" value="" style="ellipse;whiteSpace=wrap;html=1;fillColor=#000000;" vertex="1" parent="WIyWlLk6GJQsqaUBKTNV-1">
          <mxGeometry x="40" y="130" width="50" height="50" as="geometry" />
        </mxCell>
        <mxCell id="WSsvyyRBzGBjTciZfQci-9" style="edgeStyle=orthogonalEdgeStyle;rounded=0;orthogonalLoop=1;jettySize=auto;html=1;exitX=0;exitY=0.5;exitDx=0;exitDy=0;entryX=1;entryY=0.5;entryDx=0;entryDy=0;strokeWidth=5;strokeColor=default;endArrow=none;endFill=0;" edge="1" parent="WIyWlLk6GJQsqaUBKTNV-1" source="WSsvyyRBzGBjTciZfQci-1" target="WSsvyyRBzGBjTciZfQci-0">
          <mxGeometry relative="1" as="geometry" />
        </mxCell>
        <mxCell id="WSsvyyRBzGBjTciZfQci-1" value="" style="ellipse;whiteSpace=wrap;html=1;fillColor=#000000;" vertex="1" parent="WIyWlLk6GJQsqaUBKTNV-1">
          <mxGeometry x="310" y="130" width="50" height="50" as="geometry" />
        </mxCell>
        <mxCell id="WSsvyyRBzGBjTciZfQci-2" value="" style="ellipse;whiteSpace=wrap;html=1;fillColor=#000000;" vertex="1" parent="WIyWlLk6GJQsqaUBKTNV-1">
          <mxGeometry x="310" y="240" width="50" height="50" as="geometry" />
        </mxCell>
        <mxCell id="WSsvyyRBzGBjTciZfQci-3" value="" style="ellipse;whiteSpace=wrap;html=1;fillColor=#000000;" vertex="1" parent="WIyWlLk6GJQsqaUBKTNV-1">
          <mxGeometry x="40" y="330" width="50" height="50" as="geometry" />
        </mxCell>
        <mxCell id="WSsvyyRBzGBjTciZfQci-4" value="" style="ellipse;whiteSpace=wrap;html=1;fillColor=#000000;" vertex="1" parent="WIyWlLk6GJQsqaUBKTNV-1">
          <mxGeometry x="310" y="330" width="50" height="50" as="geometry" />
        </mxCell>
        <mxCell id="WSsvyyRBzGBjTciZfQci-5" value="" style="endArrow=none;html=1;rounded=0;entryX=0;entryY=0.5;entryDx=0;entryDy=0;exitX=1;exitY=0.5;exitDx=0;exitDy=0;strokeWidth=5;" edge="1" parent="WIyWlLk6GJQsqaUBKTNV-1" source="WSsvyyRBzGBjTciZfQci-3" target="WSsvyyRBzGBjTciZfQci-4">
          <mxGeometry width="50" height="50" relative="1" as="geometry">
            <mxPoint x="260" y="330" as="sourcePoint" />
            <mxPoint x="310" y="280" as="targetPoint" />
          </mxGeometry>
        </mxCell>
        <mxCell id="WSsvyyRBzGBjTciZfQci-12" value="" style="endArrow=none;html=1;rounded=0;strokeColor=default;strokeWidth=5;exitX=1;exitY=1;exitDx=0;exitDy=0;" edge="1" parent="WIyWlLk6GJQsqaUBKTNV-1" source="WSsvyyRBzGBjTciZfQci-0">
          <mxGeometry width="50" height="50" relative="1" as="geometry">
            <mxPoint x="260" y="330" as="sourcePoint" />
            <mxPoint x="320" y="250" as="targetPoint" />
          </mxGeometry>
        </mxCell>
        <mxCell id="WSsvyyRBzGBjTciZfQci-13" value="" style="ellipse;whiteSpace=wrap;html=1;fillColor=#000000;" vertex="1" parent="WIyWlLk6GJQsqaUBKTNV-1">
          <mxGeometry x="459" y="130" width="50" height="50" as="geometry" />
        </mxCell>
        <mxCell id="WSsvyyRBzGBjTciZfQci-14" style="edgeStyle=orthogonalEdgeStyle;rounded=0;orthogonalLoop=1;jettySize=auto;html=1;exitX=0;exitY=0.5;exitDx=0;exitDy=0;entryX=1;entryY=0.5;entryDx=0;entryDy=0;strokeWidth=5;strokeColor=default;endArrow=none;endFill=0;" edge="1" source="WSsvyyRBzGBjTciZfQci-15" target="WSsvyyRBzGBjTciZfQci-13" parent="WIyWlLk6GJQsqaUBKTNV-1">
          <mxGeometry relative="1" as="geometry" />
        </mxCell>
        <mxCell id="WSsvyyRBzGBjTciZfQci-15" value="" style="ellipse;whiteSpace=wrap;html=1;fillColor=#000000;" vertex="1" parent="WIyWlLk6GJQsqaUBKTNV-1">
          <mxGeometry x="729" y="130" width="50" height="50" as="geometry" />
        </mxCell>
        <mxCell id="WSsvyyRBzGBjTciZfQci-16" value="" style="ellipse;whiteSpace=wrap;html=1;fillColor=#000000;" vertex="1" parent="WIyWlLk6GJQsqaUBKTNV-1">
          <mxGeometry x="729" y="240" width="50" height="50" as="geometry" />
        </mxCell>
        <mxCell id="WSsvyyRBzGBjTciZfQci-17" value="" style="ellipse;whiteSpace=wrap;html=1;fillColor=#000000;" vertex="1" parent="WIyWlLk6GJQsqaUBKTNV-1">
          <mxGeometry x="459" y="330" width="50" height="50" as="geometry" />
        </mxCell>
        <mxCell id="WSsvyyRBzGBjTciZfQci-18" value="" style="ellipse;whiteSpace=wrap;html=1;fillColor=#000000;" vertex="1" parent="WIyWlLk6GJQsqaUBKTNV-1">
          <mxGeometry x="729" y="330" width="50" height="50" as="geometry" />
        </mxCell>
        <mxCell id="WSsvyyRBzGBjTciZfQci-19" value="" style="endArrow=none;html=1;rounded=0;entryX=0;entryY=0.5;entryDx=0;entryDy=0;exitX=1;exitY=0.5;exitDx=0;exitDy=0;strokeWidth=5;" edge="1" source="WSsvyyRBzGBjTciZfQci-17" target="WSsvyyRBzGBjTciZfQci-18" parent="WIyWlLk6GJQsqaUBKTNV-1">
          <mxGeometry width="50" height="50" relative="1" as="geometry">
            <mxPoint x="679" y="330" as="sourcePoint" />
            <mxPoint x="729" y="280" as="targetPoint" />
          </mxGeometry>
        </mxCell>
        <mxCell id="WSsvyyRBzGBjTciZfQci-20" value="" style="endArrow=none;html=1;rounded=0;strokeColor=default;strokeWidth=5;exitX=1;exitY=1;exitDx=0;exitDy=0;" edge="1" source="WSsvyyRBzGBjTciZfQci-13" parent="WIyWlLk6GJQsqaUBKTNV-1">
          <mxGeometry width="50" height="50" relative="1" as="geometry">
            <mxPoint x="679" y="330" as="sourcePoint" />
            <mxPoint x="739" y="250" as="targetPoint" />
          </mxGeometry>
        </mxCell>
        <mxCell id="WSsvyyRBzGBjTciZfQci-21" value="1:М" style="text;html=1;strokeColor=none;fillColor=none;align=center;verticalAlign=middle;whiteSpace=wrap;rounded=0;fontSize=25;fontStyle=1" vertex="1" parent="WIyWlLk6GJQsqaUBKTNV-1">
          <mxGeometry x="161" y="370" width="70" height="40" as="geometry" />
        </mxCell>
        <mxCell id="WSsvyyRBzGBjTciZfQci-24" value="Клиент подает&amp;nbsp;Заказ" style="text;html=1;strokeColor=none;fillColor=none;align=center;verticalAlign=middle;whiteSpace=wrap;rounded=0;fontSize=20;fontStyle=0" vertex="1" parent="WIyWlLk6GJQsqaUBKTNV-1">
          <mxGeometry x="49" y="80" width="311" height="40" as="geometry" />
        </mxCell>
        <mxCell id="WSsvyyRBzGBjTciZfQci-27" value="Сотрудник принимает Заявку" style="text;html=1;strokeColor=none;fillColor=none;align=center;verticalAlign=middle;whiteSpace=wrap;rounded=0;fontSize=20;fontStyle=0" vertex="1" parent="WIyWlLk6GJQsqaUBKTNV-1">
          <mxGeometry x="459" y="80" width="319" height="40" as="geometry" />
        </mxCell>
        <mxCell id="WSsvyyRBzGBjTciZfQci-28" value="1:М" style="text;html=1;strokeColor=none;fillColor=none;align=center;verticalAlign=middle;whiteSpace=wrap;rounded=0;fontSize=25;fontStyle=1" vertex="1" parent="WIyWlLk6GJQsqaUBKTNV-1">
          <mxGeometry x="583.5" y="370" width="70" height="40" as="geometry" />
        </mxCell>
        <mxCell id="WSsvyyRBzGBjTciZfQci-29" value="" style="ellipse;whiteSpace=wrap;html=1;fillColor=#000000;" vertex="1" parent="WIyWlLk6GJQsqaUBKTNV-1">
          <mxGeometry x="44" y="530" width="50" height="50" as="geometry" />
        </mxCell>
        <mxCell id="WSsvyyRBzGBjTciZfQci-30" style="edgeStyle=orthogonalEdgeStyle;rounded=0;orthogonalLoop=1;jettySize=auto;html=1;exitX=0;exitY=0.5;exitDx=0;exitDy=0;entryX=1;entryY=0.5;entryDx=0;entryDy=0;strokeWidth=5;strokeColor=default;endArrow=none;endFill=0;" edge="1" source="WSsvyyRBzGBjTciZfQci-31" target="WSsvyyRBzGBjTciZfQci-29" parent="WIyWlLk6GJQsqaUBKTNV-1">
          <mxGeometry relative="1" as="geometry" />
        </mxCell>
        <mxCell id="WSsvyyRBzGBjTciZfQci-31" value="" style="ellipse;whiteSpace=wrap;html=1;fillColor=#000000;" vertex="1" parent="WIyWlLk6GJQsqaUBKTNV-1">
          <mxGeometry x="314" y="530" width="50" height="50" as="geometry" />
        </mxCell>
        <mxCell id="WSsvyyRBzGBjTciZfQci-32" value="" style="ellipse;whiteSpace=wrap;html=1;fillColor=#000000;" vertex="1" parent="WIyWlLk6GJQsqaUBKTNV-1">
          <mxGeometry x="314" y="640" width="50" height="50" as="geometry" />
        </mxCell>
        <mxCell id="WSsvyyRBzGBjTciZfQci-33" value="" style="ellipse;whiteSpace=wrap;html=1;fillColor=#000000;" vertex="1" parent="WIyWlLk6GJQsqaUBKTNV-1">
          <mxGeometry x="44" y="730" width="50" height="50" as="geometry" />
        </mxCell>
        <mxCell id="WSsvyyRBzGBjTciZfQci-34" value="" style="ellipse;whiteSpace=wrap;html=1;fillColor=#000000;" vertex="1" parent="WIyWlLk6GJQsqaUBKTNV-1">
          <mxGeometry x="314" y="730" width="50" height="50" as="geometry" />
        </mxCell>
        <mxCell id="WSsvyyRBzGBjTciZfQci-35" value="" style="endArrow=none;html=1;rounded=0;entryX=0;entryY=0.5;entryDx=0;entryDy=0;exitX=1;exitY=0.5;exitDx=0;exitDy=0;strokeWidth=5;" edge="1" source="WSsvyyRBzGBjTciZfQci-33" target="WSsvyyRBzGBjTciZfQci-34" parent="WIyWlLk6GJQsqaUBKTNV-1">
          <mxGeometry width="50" height="50" relative="1" as="geometry">
            <mxPoint x="264" y="730" as="sourcePoint" />
            <mxPoint x="314" y="680" as="targetPoint" />
          </mxGeometry>
        </mxCell>
        <mxCell id="WSsvyyRBzGBjTciZfQci-36" value="" style="endArrow=none;html=1;rounded=0;strokeColor=default;strokeWidth=5;exitX=1;exitY=1;exitDx=0;exitDy=0;" edge="1" source="WSsvyyRBzGBjTciZfQci-29" parent="WIyWlLk6GJQsqaUBKTNV-1">
          <mxGeometry width="50" height="50" relative="1" as="geometry">
            <mxPoint x="264" y="730" as="sourcePoint" />
            <mxPoint x="324" y="650" as="targetPoint" />
          </mxGeometry>
        </mxCell>
        <mxCell id="WSsvyyRBzGBjTciZfQci-37" value="" style="ellipse;whiteSpace=wrap;html=1;fillColor=#000000;" vertex="1" parent="WIyWlLk6GJQsqaUBKTNV-1">
          <mxGeometry x="463" y="530" width="50" height="50" as="geometry" />
        </mxCell>
        <mxCell id="WSsvyyRBzGBjTciZfQci-38" style="edgeStyle=orthogonalEdgeStyle;rounded=0;orthogonalLoop=1;jettySize=auto;html=1;exitX=0;exitY=0.5;exitDx=0;exitDy=0;entryX=1;entryY=0.5;entryDx=0;entryDy=0;strokeWidth=5;strokeColor=default;endArrow=none;endFill=0;" edge="1" source="WSsvyyRBzGBjTciZfQci-39" target="WSsvyyRBzGBjTciZfQci-37" parent="WIyWlLk6GJQsqaUBKTNV-1">
          <mxGeometry relative="1" as="geometry" />
        </mxCell>
        <mxCell id="WSsvyyRBzGBjTciZfQci-39" value="" style="ellipse;whiteSpace=wrap;html=1;fillColor=#000000;" vertex="1" parent="WIyWlLk6GJQsqaUBKTNV-1">
          <mxGeometry x="733" y="530" width="50" height="50" as="geometry" />
        </mxCell>
        <mxCell id="WSsvyyRBzGBjTciZfQci-40" value="" style="ellipse;whiteSpace=wrap;html=1;fillColor=#000000;" vertex="1" parent="WIyWlLk6GJQsqaUBKTNV-1">
          <mxGeometry x="733" y="640" width="50" height="50" as="geometry" />
        </mxCell>
        <mxCell id="WSsvyyRBzGBjTciZfQci-41" value="" style="ellipse;whiteSpace=wrap;html=1;fillColor=#000000;" vertex="1" parent="WIyWlLk6GJQsqaUBKTNV-1">
          <mxGeometry x="463" y="730" width="50" height="50" as="geometry" />
        </mxCell>
        <mxCell id="WSsvyyRBzGBjTciZfQci-42" value="" style="ellipse;whiteSpace=wrap;html=1;fillColor=#000000;" vertex="1" parent="WIyWlLk6GJQsqaUBKTNV-1">
          <mxGeometry x="733" y="730" width="50" height="50" as="geometry" />
        </mxCell>
        <mxCell id="WSsvyyRBzGBjTciZfQci-43" value="" style="endArrow=none;html=1;rounded=0;entryX=0;entryY=0.5;entryDx=0;entryDy=0;exitX=1;exitY=0.5;exitDx=0;exitDy=0;strokeWidth=5;" edge="1" source="WSsvyyRBzGBjTciZfQci-41" target="WSsvyyRBzGBjTciZfQci-42" parent="WIyWlLk6GJQsqaUBKTNV-1">
          <mxGeometry width="50" height="50" relative="1" as="geometry">
            <mxPoint x="683" y="730" as="sourcePoint" />
            <mxPoint x="733" y="680" as="targetPoint" />
          </mxGeometry>
        </mxCell>
        <mxCell id="WSsvyyRBzGBjTciZfQci-44" value="" style="endArrow=none;html=1;rounded=0;strokeColor=default;strokeWidth=5;exitX=1;exitY=1;exitDx=0;exitDy=0;" edge="1" source="WSsvyyRBzGBjTciZfQci-37" parent="WIyWlLk6GJQsqaUBKTNV-1">
          <mxGeometry width="50" height="50" relative="1" as="geometry">
            <mxPoint x="683" y="730" as="sourcePoint" />
            <mxPoint x="743" y="650" as="targetPoint" />
          </mxGeometry>
        </mxCell>
        <mxCell id="WSsvyyRBzGBjTciZfQci-45" value="1:М" style="text;html=1;strokeColor=none;fillColor=none;align=center;verticalAlign=middle;whiteSpace=wrap;rounded=0;fontSize=25;fontStyle=1" vertex="1" parent="WIyWlLk6GJQsqaUBKTNV-1">
          <mxGeometry x="165" y="770" width="70" height="40" as="geometry" />
        </mxCell>
        <mxCell id="WSsvyyRBzGBjTciZfQci-46" value="Клиент подает&amp;nbsp;Заказ" style="text;html=1;strokeColor=none;fillColor=none;align=center;verticalAlign=middle;whiteSpace=wrap;rounded=0;fontSize=20;fontStyle=0" vertex="1" parent="WIyWlLk6GJQsqaUBKTNV-1">
          <mxGeometry x="53" y="480" width="311" height="40" as="geometry" />
        </mxCell>
        <mxCell id="WSsvyyRBzGBjTciZfQci-47" value="Сотрудник принимает Заявку" style="text;html=1;strokeColor=none;fillColor=none;align=center;verticalAlign=middle;whiteSpace=wrap;rounded=0;fontSize=20;fontStyle=0" vertex="1" parent="WIyWlLk6GJQsqaUBKTNV-1">
          <mxGeometry x="463" y="480" width="319" height="40" as="geometry" />
        </mxCell>
        <mxCell id="WSsvyyRBzGBjTciZfQci-48" value="1:М" style="text;html=1;strokeColor=none;fillColor=none;align=center;verticalAlign=middle;whiteSpace=wrap;rounded=0;fontSize=25;fontStyle=1" vertex="1" parent="WIyWlLk6GJQsqaUBKTNV-1">
          <mxGeometry x="587.5" y="770" width="70" height="40" as="geometry" />
        </mxCell>
        <mxCell id="9GMQBpf4x1ILECxxhfBw-0" value="М" style="text;html=1;strokeColor=none;fillColor=none;align=center;verticalAlign=middle;whiteSpace=wrap;rounded=0;fontSize=9;" vertex="1" parent="WIyWlLk6GJQsqaUBKTNV-1">
          <mxGeometry x="568" y="309" width="10" height="10" as="geometry" />
        </mxCell>
      </root>
    </mxGraphModel>
  </diagram>
</mxfile>
